<?xml version="1.0" encoding="UTF-8"?>
<svg xmlns="http://www.w3.org/2000/svg" xmlns:xlink="http://www.w3.org/1999/xlink" width="405pt" height="152pt" viewBox="0 0 405 152" version="1.1">
<g id="surface108886">
<path style=" stroke:none;fill-rule:nonzero;fill:rgb(0%,100%,0%);fill-opacity:1;" d="M 55 81.730469 C 55 81.730469 95 81.730469 95 81.730469 C 95 81.730469 95 141.730469 95 141.730469 C 95 141.730469 55 141.730469 55 141.730469 C 55 141.730469 55 81.730469 55 81.730469 Z "/>
<path style="fill:none;stroke-width:1;stroke-linecap:round;stroke-linejoin:miter;stroke:rgb(0%,0%,0%);stroke-opacity:1;stroke-miterlimit:10;" d="M 55.5 81.5 C 55.5 81.5 95.5 81.5 95.5 81.5 C 95.5 81.5 95.5 141.5 95.5 141.5 C 95.5 141.5 55.5 141.5 55.5 141.5 C 55.5 141.5 55.5 81.5 55.5 81.5 Z "/>
<path style=" stroke:none;fill-rule:evenodd;fill:rgb(0%,100%,0%);fill-opacity:1;" d="M 105 81.730469 C 105 98.300781 91.570312 111.730469 75 111.730469 C 58.429688 111.730469 45 98.300781 45 81.730469 C 45 65.164062 58.429688 51.730469 75 51.730469 C 91.570312 51.730469 105 65.164062 105 81.730469 Z "/>
<path style="fill:none;stroke-width:1;stroke-linecap:round;stroke-linejoin:miter;stroke:rgb(0%,0%,0%);stroke-opacity:1;stroke-miterlimit:10;" d="M 105.5 81.5 C 105.5 98.5 91.5 111.5 75.5 111.5 C 58.5 111.5 44.5 98.5 45.5 81.5 C 45.5 65.5 58.5 51.5 75.5 51.5 C 91.5 51.5 105.5 65.5 105.5 81.5 Z "/>
<path style=" stroke:none;fill-rule:nonzero;fill:rgb(0%,0%,0%);fill-opacity:1;" d="M 89 46.0625 C 89 46.0625 94 37.402344 94 37.402344 C 94 37.402344 84 37.402344 84 37.402344 C 84 37.402344 89 46.0625 89 46.0625 Z "/>
<path style=" stroke:none;fill-rule:nonzero;fill:rgb(0%,0%,0%);fill-opacity:1;" d="M 61 46.0625 C 61 46.0625 66 37.402344 66 37.402344 C 66 37.402344 56 37.402344 56 37.402344 C 56 37.402344 61 46.0625 61 46.0625 Z "/>
<path style=" stroke:none;fill-rule:evenodd;fill:rgb(0%,100%,0%);fill-opacity:1;" d="M 91 41.730469 C 91 50.570312 83.835938 57.730469 75 57.730469 C 66.164062 57.730469 59 50.570312 59 41.730469 C 59 32.894531 66.164062 25.730469 75 25.730469 C 83.835938 25.730469 91 32.894531 91 41.730469 Z "/>
<path style="fill:none;stroke-width:1;stroke-linecap:round;stroke-linejoin:miter;stroke:rgb(0%,0%,0%);stroke-opacity:1;stroke-miterlimit:10;" d="M 91.5 41.5 C 91.5 50.5 83.5 57.5 75.5 57.5 C 66.5 57.5 59.5 50.5 59.5 41.5 C 59.5 32.5 66.5 25.5 75.5 25.5 C 83.5 25.5 91.5 32.5 91.5 41.5 Z "/>
<path style=" stroke:none;fill-rule:nonzero;fill:rgb(0%,0%,100%);fill-opacity:1;" d="M 66 39.730469 C 66 39.730469 72 39.730469 72 39.730469 C 72 39.730469 72 43.730469 72 43.730469 C 72 43.730469 66 43.730469 66 43.730469 C 66 43.730469 66 39.730469 66 39.730469 Z "/>
<path style=" stroke:none;fill-rule:nonzero;fill:rgb(0%,0%,100%);fill-opacity:1;" d="M 78 39.730469 C 78 39.730469 84 39.730469 84 39.730469 C 84 39.730469 84 43.730469 84 43.730469 C 84 43.730469 78 43.730469 78 43.730469 C 78 43.730469 78 39.730469 78 39.730469 Z "/>
<path style=" stroke:none;fill-rule:nonzero;fill:rgb(0%,100%,0%);fill-opacity:1;" d="M 15 81.730469 C 15 81.730469 55 81.730469 55 81.730469 C 55 81.730469 55 141.730469 55 141.730469 C 55 141.730469 15 141.730469 15 141.730469 C 15 141.730469 15 81.730469 15 81.730469 Z "/>
<path style="fill:none;stroke-width:1;stroke-linecap:round;stroke-linejoin:miter;stroke:rgb(0%,0%,0%);stroke-opacity:1;stroke-miterlimit:10;" d="M 15.5 81.5 C 15.5 81.5 55.5 81.5 55.5 81.5 C 55.5 81.5 55.5 141.5 55.5 141.5 C 55.5 141.5 15.5 141.5 15.5 141.5 C 15.5 141.5 15.5 81.5 15.5 81.5 Z "/>
<path style=" stroke:none;fill-rule:evenodd;fill:rgb(0%,100%,0%);fill-opacity:1;" d="M 65 81.730469 C 65 98.300781 51.570312 111.730469 35 111.730469 C 18.429688 111.730469 5 98.300781 5 81.730469 C 5 65.164062 18.429688 51.730469 35 51.730469 C 51.570312 51.730469 65 65.164062 65 81.730469 Z "/>
<path style="fill:none;stroke-width:1;stroke-linecap:round;stroke-linejoin:miter;stroke:rgb(0%,0%,0%);stroke-opacity:1;stroke-miterlimit:10;" d="M 65.5 81.5 C 65.5 98.5 51.5 111.5 35.5 111.5 L 34.5 111.5 C 18.5 111.5 4.5 98.5 5.5 81.5 C 5.5 65.5 18.5 51.5 35.5 51.5 C 51.5 51.5 65.5 65.5 65.5 81.5 Z "/>
<path style=" stroke:none;fill-rule:nonzero;fill:rgb(0%,0%,0%);fill-opacity:1;" d="M 49 46.0625 C 49 46.0625 54 37.402344 54 37.402344 C 54 37.402344 44 37.402344 44 37.402344 C 44 37.402344 49 46.0625 49 46.0625 Z "/>
<path style=" stroke:none;fill-rule:nonzero;fill:rgb(0%,0%,0%);fill-opacity:1;" d="M 21 46.0625 C 21 46.0625 26 37.402344 26 37.402344 C 26 37.402344 16 37.402344 16 37.402344 C 16 37.402344 21 46.0625 21 46.0625 Z "/>
<path style=" stroke:none;fill-rule:evenodd;fill:rgb(0%,100%,0%);fill-opacity:1;" d="M 51 41.730469 C 51 50.570312 43.835938 57.730469 35 57.730469 C 26.164062 57.730469 19 50.570312 19 41.730469 C 19 32.894531 26.164062 25.730469 35 25.730469 C 43.835938 25.730469 51 32.894531 51 41.730469 Z "/>
<path style="fill:none;stroke-width:1;stroke-linecap:round;stroke-linejoin:miter;stroke:rgb(0%,0%,0%);stroke-opacity:1;stroke-miterlimit:10;" d="M 51.5 41.5 C 51.5 50.5 43.5 57.5 35.5 57.5 C 26.5 57.5 18.5 50.5 19.5 41.5 C 19.5 32.5 26.5 25.5 35.5 25.5 C 43.5 25.5 51.5 32.5 51.5 41.5 Z "/>
<path style=" stroke:none;fill-rule:nonzero;fill:rgb(0%,0%,100%);fill-opacity:1;" d="M 26 39.730469 C 26 39.730469 32 39.730469 32 39.730469 C 32 39.730469 32 43.730469 32 43.730469 C 32 43.730469 26 43.730469 26 43.730469 C 26 43.730469 26 39.730469 26 39.730469 Z "/>
<path style=" stroke:none;fill-rule:nonzero;fill:rgb(0%,0%,100%);fill-opacity:1;" d="M 38 39.730469 C 38 39.730469 44 39.730469 44 39.730469 C 44 39.730469 44 43.730469 44 43.730469 C 44 43.730469 38 43.730469 38 43.730469 C 38 43.730469 38 39.730469 38 39.730469 Z "/>
<path style=" stroke:none;fill-rule:evenodd;fill:rgb(0%,0%,0%);fill-opacity:1;" d="M 125 111.730469 C 125 133.824219 107.089844 151.730469 85 151.730469 C 62.910156 151.730469 45 133.824219 45 111.730469 C 45 89.640625 62.910156 71.730469 85 71.730469 C 107.089844 71.730469 125 89.640625 125 111.730469 Z "/>
<path style=" stroke:none;fill-rule:evenodd;fill:rgb(0%,0%,0%);fill-opacity:1;" d="M 365 111.730469 C 365 133.824219 347.089844 151.730469 325 151.730469 C 302.910156 151.730469 285 133.824219 285 111.730469 C 285 89.640625 302.910156 71.730469 325 71.730469 C 347.089844 71.730469 365 89.640625 365 111.730469 Z "/>
<path style=" stroke:none;fill-rule:nonzero;fill:rgb(100%,0%,0%);fill-opacity:1;" d="M 5 61.730469 C 5 61.730469 405 61.730469 405 61.730469 C 405 61.730469 405 121.730469 405 121.730469 C 405 121.730469 5 121.730469 5 121.730469 C 5 121.730469 5 61.730469 5 61.730469 Z "/>
<path style=" stroke:none;fill-rule:nonzero;fill:rgb(0%,0%,0%);fill-opacity:1;" d="M 247 79.730469 C 247 79.730469 263 79.730469 263 79.730469 C 263 79.730469 263 83.730469 263 83.730469 C 263 83.730469 247 83.730469 247 83.730469 C 247 83.730469 247 79.730469 247 79.730469 Z "/>
<path style=" stroke:none;fill-rule:nonzero;fill:rgb(0%,0%,0%);fill-opacity:1;" d="M 0 107.730469 C 0 107.730469 6 107.730469 6 107.730469 C 6 107.730469 6 115.730469 6 115.730469 C 6 115.730469 0 115.730469 0 115.730469 C 0 115.730469 0 107.730469 0 107.730469 Z "/>
<path style=" stroke:none;fill-rule:nonzero;fill:rgb(0%,0%,0%);fill-opacity:1;" d="M 0 97.730469 C 0 97.730469 6 97.730469 6 97.730469 C 6 97.730469 6 105.730469 6 105.730469 C 6 105.730469 0 105.730469 0 105.730469 C 0 105.730469 0 97.730469 0 97.730469 Z "/>
<path style=" stroke:none;fill-rule:nonzero;fill:rgb(0%,0%,0%);fill-opacity:1;" d="M 0 87.730469 C 0 87.730469 6 87.730469 6 87.730469 C 6 87.730469 6 95.730469 6 95.730469 C 6 95.730469 0 95.730469 0 95.730469 C 0 95.730469 0 87.730469 0 87.730469 Z "/>
<path style=" stroke:none;fill-rule:nonzero;fill:rgb(100%,0%,0%);fill-opacity:1;" d="M 24.757812 0 C 24.757812 0 146 70 146 70 C 146 70 144 73.464844 144 73.464844 C 144 73.464844 22.757812 3.464844 22.757812 3.464844 C 22.757812 3.464844 24.757812 0 24.757812 0 Z "/>
<path style="fill:none;stroke-width:16;stroke-linecap:round;stroke-linejoin:round;stroke:rgb(100%,0%,0%);stroke-opacity:1;stroke-miterlimit:10;" d="M 135 74.996094 C 184.074219 46.664062 285.320312 -36.613281 305 74.996094 "/>
<path style="fill:none;stroke-width:1;stroke-linecap:round;stroke-linejoin:miter;stroke:rgb(0%,0%,0%);stroke-opacity:1;stroke-miterlimit:10;" d="M 175.5 62.5 C 175.5 62.5 275.5 62.5 275.5 62.5 C 275.5 62.5 275.5 112.5 275.5 112.5 C 275.5 112.5 175.5 112.5 175.5 112.5 C 175.5 112.5 175.5 62.5 175.5 62.5 Z "/>
<path style=" stroke:none;fill-rule:evenodd;fill:rgb(0%,100%,0%);fill-opacity:1;" d="M 131 51.730469 C 131 60.570312 123.835938 67.730469 115 67.730469 C 106.164062 67.730469 99 60.570312 99 51.730469 C 99 42.894531 106.164062 35.730469 115 35.730469 C 123.835938 35.730469 131 42.894531 131 51.730469 Z "/>
<path style="fill:none;stroke-width:1;stroke-linecap:round;stroke-linejoin:miter;stroke:rgb(0%,0%,0%);stroke-opacity:1;stroke-miterlimit:10;" d="M 131.5 51.5 C 131.5 60.5 123.5 67.5 115.5 67.5 C 106.5 67.5 99.5 60.5 99.5 51.5 C 99.5 42.5 106.5 35.5 115.5 35.5 C 123.5 35.5 131.5 42.5 131.5 51.5 Z "/>
<path style=" stroke:none;fill-rule:nonzero;fill:rgb(0%,0%,0%);fill-opacity:1;" d="M 101 56.0625 C 101 56.0625 106 47.402344 106 47.402344 C 106 47.402344 96 47.402344 96 47.402344 C 96 47.402344 101 56.0625 101 56.0625 Z "/>
<path style=" stroke:none;fill-rule:nonzero;fill:rgb(0%,0%,0%);fill-opacity:1;" d="M 105 56.0625 C 105 56.0625 110 47.402344 110 47.402344 C 110 47.402344 100 47.402344 100 47.402344 C 100 47.402344 105 56.0625 105 56.0625 Z "/>
<path style=" stroke:none;fill-rule:nonzero;fill:rgb(0%,0%,0%);fill-opacity:1;" d="M 109 56.0625 C 109 56.0625 114 47.402344 114 47.402344 C 114 47.402344 104 47.402344 104 47.402344 C 104 47.402344 109 56.0625 109 56.0625 Z "/>
<path style=" stroke:none;fill-rule:nonzero;fill:rgb(0%,0%,0%);fill-opacity:1;" d="M 113 56.0625 C 113 56.0625 118 47.402344 118 47.402344 C 118 47.402344 108 47.402344 108 47.402344 C 108 47.402344 113 56.0625 113 56.0625 Z "/>
<path style=" stroke:none;fill-rule:nonzero;fill:rgb(0%,0%,0%);fill-opacity:1;" d="M 117 56.0625 C 117 56.0625 122 47.402344 122 47.402344 C 122 47.402344 112 47.402344 112 47.402344 C 112 47.402344 117 56.0625 117 56.0625 Z "/>
<path style=" stroke:none;fill-rule:nonzero;fill:rgb(0%,0%,0%);fill-opacity:1;" d="M 121 56.0625 C 121 56.0625 126 47.402344 126 47.402344 C 126 47.402344 116 47.402344 116 47.402344 C 116 47.402344 121 56.0625 121 56.0625 Z "/>
<path style=" stroke:none;fill-rule:nonzero;fill:rgb(0%,0%,0%);fill-opacity:1;" d="M 125 56.0625 C 125 56.0625 130 47.402344 130 47.402344 C 130 47.402344 120 47.402344 120 47.402344 C 120 47.402344 125 56.0625 125 56.0625 Z "/>
<path style=" stroke:none;fill-rule:nonzero;fill:rgb(0%,0%,0%);fill-opacity:1;" d="M 129 56.0625 C 129 56.0625 134 47.402344 134 47.402344 C 134 47.402344 124 47.402344 124 47.402344 C 124 47.402344 129 56.0625 129 56.0625 Z "/>
<path style=" stroke:none;fill-rule:nonzero;fill:rgb(0%,100%,0%);fill-opacity:1;" d="M 95 91.730469 C 95 91.730469 135 91.730469 135 91.730469 C 135 91.730469 135 151.730469 135 151.730469 C 135 151.730469 95 151.730469 95 151.730469 C 95 151.730469 95 91.730469 95 91.730469 Z "/>
<path style="fill:none;stroke-width:1;stroke-linecap:round;stroke-linejoin:miter;stroke:rgb(0%,0%,0%);stroke-opacity:1;stroke-miterlimit:10;" d="M 95.5 91.5 C 95.5 91.5 135.5 91.5 135.5 91.5 C 135.5 91.5 135.5 151.5 135.5 151.5 C 135.5 151.5 95.5 151.5 95.5 151.5 C 95.5 151.5 95.5 91.5 95.5 91.5 Z "/>
<path style=" stroke:none;fill-rule:evenodd;fill:rgb(0%,100%,0%);fill-opacity:1;" d="M 145 91.730469 C 145 108.300781 131.570312 121.730469 115 121.730469 C 98.429688 121.730469 85 108.300781 85 91.730469 C 85 75.164062 98.429688 61.730469 115 61.730469 C 131.570312 61.730469 145 75.164062 145 91.730469 Z "/>
<path style="fill:none;stroke-width:1;stroke-linecap:round;stroke-linejoin:miter;stroke:rgb(0%,0%,0%);stroke-opacity:1;stroke-miterlimit:10;" d="M 145.5 91.5 C 145.5 108.5 131.5 121.5 115.5 121.5 C 98.5 121.5 85.5 108.5 85.5 91.5 C 85.5 75.5 98.5 61.5 115.5 61.5 C 131.5 61.5 145.5 75.5 145.5 91.5 Z "/>
<path style=" stroke:none;fill-rule:evenodd;fill:rgb(0%,100%,0%);fill-opacity:1;" d="M 61 51.730469 C 61 60.570312 53.835938 67.730469 45 67.730469 C 36.164062 67.730469 29 60.570312 29 51.730469 C 29 42.894531 36.164062 35.730469 45 35.730469 C 53.835938 35.730469 61 42.894531 61 51.730469 Z "/>
<path style="fill:none;stroke-width:1;stroke-linecap:round;stroke-linejoin:miter;stroke:rgb(0%,0%,0%);stroke-opacity:1;stroke-miterlimit:10;" d="M 61.5 51.5 C 61.5 60.5 53.5 67.5 45.5 67.5 C 36.5 67.5 28.5 60.5 29.5 51.5 C 29.5 42.5 36.5 35.5 45.5 35.5 C 53.5 35.5 61.5 42.5 61.5 51.5 Z "/>
<path style=" stroke:none;fill-rule:nonzero;fill:rgb(0%,0%,0%);fill-opacity:1;" d="M 31 56.0625 C 31 56.0625 36 47.402344 36 47.402344 C 36 47.402344 26 47.402344 26 47.402344 C 26 47.402344 31 56.0625 31 56.0625 Z "/>
<path style=" stroke:none;fill-rule:nonzero;fill:rgb(0%,0%,0%);fill-opacity:1;" d="M 35 56.0625 C 35 56.0625 40 47.402344 40 47.402344 C 40 47.402344 30 47.402344 30 47.402344 C 30 47.402344 35 56.0625 35 56.0625 Z "/>
<path style=" stroke:none;fill-rule:nonzero;fill:rgb(0%,0%,0%);fill-opacity:1;" d="M 39 56.0625 C 39 56.0625 44 47.402344 44 47.402344 C 44 47.402344 34 47.402344 34 47.402344 C 34 47.402344 39 56.0625 39 56.0625 Z "/>
<path style=" stroke:none;fill-rule:nonzero;fill:rgb(0%,0%,0%);fill-opacity:1;" d="M 43 56.0625 C 43 56.0625 48 47.402344 48 47.402344 C 48 47.402344 38 47.402344 38 47.402344 C 38 47.402344 43 56.0625 43 56.0625 Z "/>
<path style=" stroke:none;fill-rule:nonzero;fill:rgb(0%,0%,0%);fill-opacity:1;" d="M 47 56.0625 C 47 56.0625 52 47.402344 52 47.402344 C 52 47.402344 42 47.402344 42 47.402344 C 42 47.402344 47 56.0625 47 56.0625 Z "/>
<path style=" stroke:none;fill-rule:nonzero;fill:rgb(0%,0%,0%);fill-opacity:1;" d="M 51 56.0625 C 51 56.0625 56 47.402344 56 47.402344 C 56 47.402344 46 47.402344 46 47.402344 C 46 47.402344 51 56.0625 51 56.0625 Z "/>
<path style=" stroke:none;fill-rule:nonzero;fill:rgb(0%,0%,0%);fill-opacity:1;" d="M 55 56.0625 C 55 56.0625 60 47.402344 60 47.402344 C 60 47.402344 50 47.402344 50 47.402344 C 50 47.402344 55 56.0625 55 56.0625 Z "/>
<path style=" stroke:none;fill-rule:nonzero;fill:rgb(0%,0%,0%);fill-opacity:1;" d="M 59 56.0625 C 59 56.0625 64 47.402344 64 47.402344 C 64 47.402344 54 47.402344 54 47.402344 C 54 47.402344 59 56.0625 59 56.0625 Z "/>
<path style=" stroke:none;fill-rule:nonzero;fill:rgb(0%,100%,0%);fill-opacity:1;" d="M 25 91.730469 C 25 91.730469 65 91.730469 65 91.730469 C 65 91.730469 65 151.730469 65 151.730469 C 65 151.730469 25 151.730469 25 151.730469 C 25 151.730469 25 91.730469 25 91.730469 Z "/>
<path style="fill:none;stroke-width:1;stroke-linecap:round;stroke-linejoin:miter;stroke:rgb(0%,0%,0%);stroke-opacity:1;stroke-miterlimit:10;" d="M 25.5 91.5 C 25.5 91.5 65.5 91.5 65.5 91.5 C 65.5 91.5 65.5 151.5 65.5 151.5 C 65.5 151.5 25.5 151.5 25.5 151.5 C 25.5 151.5 25.5 91.5 25.5 91.5 Z "/>
<path style=" stroke:none;fill-rule:evenodd;fill:rgb(0%,100%,0%);fill-opacity:1;" d="M 75 91.730469 C 75 108.300781 61.570312 121.730469 45 121.730469 C 28.429688 121.730469 15 108.300781 15 91.730469 C 15 75.164062 28.429688 61.730469 45 61.730469 C 61.570312 61.730469 75 75.164062 75 91.730469 Z "/>
<path style="fill:none;stroke-width:1;stroke-linecap:round;stroke-linejoin:miter;stroke:rgb(0%,0%,0%);stroke-opacity:1;stroke-miterlimit:10;" d="M 75.5 91.5 C 75.5 108.5 61.5 121.5 45.5 121.5 L 44.5 121.5 C 28.5 121.5 14.5 108.5 15.5 91.5 C 15.5 75.5 28.5 61.5 45.5 61.5 C 61.5 61.5 75.5 75.5 75.5 91.5 Z "/>
</g>
</svg>
