<?xml version="1.0" encoding="UTF-8"?>
<svg xmlns="http://www.w3.org/2000/svg" xmlns:xlink="http://www.w3.org/1999/xlink" width="405pt" height="152pt" viewBox="0 0 405 152" version="1.1">
<g id="surface108881">
<path style=" stroke:none;fill-rule:nonzero;fill:rgb(0%,100%,0%);fill-opacity:1;" d="M 55 81.730469 C 55 81.730469 95 81.730469 95 81.730469 C 95 81.730469 95 141.730469 95 141.730469 C 95 141.730469 55 141.730469 55 141.730469 C 55 141.730469 55 81.730469 55 81.730469 Z "/>
<path style="fill:none;stroke-width:1;stroke-linecap:round;stroke-linejoin:miter;stroke:rgb(0%,0%,0%);stroke-opacity:1;stroke-miterlimit:10;" d="M 55.5 81.5 C 55.5 81.5 95.5 81.5 95.5 81.5 C 95.5 81.5 95.5 141.5 95.5 141.5 C 95.5 141.5 55.5 141.5 55.5 141.5 C 55.5 141.5 55.5 81.5 55.5 81.5 Z "/>
<path style=" stroke:none;fill-rule:evenodd;fill:rgb(0%,100%,0%);fill-opacity:1;" d="M 105 81.730469 C 105 98.300781 91.570312 111.730469 75 111.730469 C 58.429688 111.730469 45 98.300781 45 81.730469 C 45 65.164062 58.429688 51.730469 75 51.730469 C 91.570312 51.730469 105 65.164062 105 81.730469 Z "/>
<path style="fill:none;stroke-width:1;stroke-linecap:round;stroke-linejoin:miter;stroke:rgb(0%,0%,0%);stroke-opacity:1;stroke-miterlimit:10;" d="M 105.5 81.5 C 105.5 98.5 91.5 111.5 75.5 111.5 C 58.5 111.5 44.5 98.5 45.5 81.5 C 45.5 65.5 58.5 51.5 75.5 51.5 C 91.5 51.5 105.5 65.5 105.5 81.5 Z "/>
<path style=" stroke:none;fill-rule:nonzero;fill:rgb(0%,0%,0%);fill-opacity:1;" d="M 89 46.0625 C 89 46.0625 94 37.402344 94 37.402344 C 94 37.402344 84 37.402344 84 37.402344 C 84 37.402344 89 46.0625 89 46.0625 Z "/>
<path style=" stroke:none;fill-rule:nonzero;fill:rgb(0%,0%,0%);fill-opacity:1;" d="M 61 46.0625 C 61 46.0625 66 37.402344 66 37.402344 C 66 37.402344 56 37.402344 56 37.402344 C 56 37.402344 61 46.0625 61 46.0625 Z "/>
<path style=" stroke:none;fill-rule:evenodd;fill:rgb(0%,100%,0%);fill-opacity:1;" d="M 91 41.730469 C 91 50.570312 83.835938 57.730469 75 57.730469 C 66.164062 57.730469 59 50.570312 59 41.730469 C 59 32.894531 66.164062 25.730469 75 25.730469 C 83.835938 25.730469 91 32.894531 91 41.730469 Z "/>
<path style="fill:none;stroke-width:1;stroke-linecap:round;stroke-linejoin:miter;stroke:rgb(0%,0%,0%);stroke-opacity:1;stroke-miterlimit:10;" d="M 91.5 41.5 C 91.5 50.5 83.5 57.5 75.5 57.5 C 66.5 57.5 59.5 50.5 59.5 41.5 C 59.5 32.5 66.5 25.5 75.5 25.5 C 83.5 25.5 91.5 32.5 91.5 41.5 Z "/>
<path style=" stroke:none;fill-rule:nonzero;fill:rgb(0%,0%,100%);fill-opacity:1;" d="M 66 39.730469 C 66 39.730469 72 39.730469 72 39.730469 C 72 39.730469 72 43.730469 72 43.730469 C 72 43.730469 66 43.730469 66 43.730469 C 66 43.730469 66 39.730469 66 39.730469 Z "/>
<path style=" stroke:none;fill-rule:nonzero;fill:rgb(0%,0%,100%);fill-opacity:1;" d="M 78 39.730469 C 78 39.730469 84 39.730469 84 39.730469 C 84 39.730469 84 43.730469 84 43.730469 C 84 43.730469 78 43.730469 78 43.730469 C 78 43.730469 78 39.730469 78 39.730469 Z "/>
<path style=" stroke:none;fill-rule:evenodd;fill:rgb(0%,0%,0%);fill-opacity:1;" d="M 125 111.730469 C 125 133.824219 107.089844 151.730469 85 151.730469 C 62.910156 151.730469 45 133.824219 45 111.730469 C 45 89.640625 62.910156 71.730469 85 71.730469 C 107.089844 71.730469 125 89.640625 125 111.730469 Z "/>
<path style=" stroke:none;fill-rule:evenodd;fill:rgb(0%,0%,0%);fill-opacity:1;" d="M 365 111.730469 C 365 133.824219 347.089844 151.730469 325 151.730469 C 302.910156 151.730469 285 133.824219 285 111.730469 C 285 89.640625 302.910156 71.730469 325 71.730469 C 347.089844 71.730469 365 89.640625 365 111.730469 Z "/>
<path style=" stroke:none;fill-rule:nonzero;fill:rgb(100%,0%,0%);fill-opacity:1;" d="M 5 61.730469 C 5 61.730469 405 61.730469 405 61.730469 C 405 61.730469 405 121.730469 405 121.730469 C 405 121.730469 5 121.730469 5 121.730469 C 5 121.730469 5 61.730469 5 61.730469 Z "/>
<path style=" stroke:none;fill-rule:nonzero;fill:rgb(0%,0%,0%);fill-opacity:1;" d="M 247 79.730469 C 247 79.730469 263 79.730469 263 79.730469 C 263 79.730469 263 83.730469 263 83.730469 C 263 83.730469 247 83.730469 247 83.730469 C 247 83.730469 247 79.730469 247 79.730469 Z "/>
<path style=" stroke:none;fill-rule:nonzero;fill:rgb(0%,0%,0%);fill-opacity:1;" d="M 0 107.730469 C 0 107.730469 6 107.730469 6 107.730469 C 6 107.730469 6 115.730469 6 115.730469 C 6 115.730469 0 115.730469 0 115.730469 C 0 115.730469 0 107.730469 0 107.730469 Z "/>
<path style=" stroke:none;fill-rule:nonzero;fill:rgb(0%,0%,0%);fill-opacity:1;" d="M 0 97.730469 C 0 97.730469 6 97.730469 6 97.730469 C 6 97.730469 6 105.730469 6 105.730469 C 6 105.730469 0 105.730469 0 105.730469 C 0 105.730469 0 97.730469 0 97.730469 Z "/>
<path style=" stroke:none;fill-rule:nonzero;fill:rgb(0%,0%,0%);fill-opacity:1;" d="M 0 87.730469 C 0 87.730469 6 87.730469 6 87.730469 C 6 87.730469 6 95.730469 6 95.730469 C 6 95.730469 0 95.730469 0 95.730469 C 0 95.730469 0 87.730469 0 87.730469 Z "/>
<path style=" stroke:none;fill-rule:nonzero;fill:rgb(100%,0%,0%);fill-opacity:1;" d="M 24.757812 0 C 24.757812 0 146 70 146 70 C 146 70 144 73.464844 144 73.464844 C 144 73.464844 22.757812 3.464844 22.757812 3.464844 C 22.757812 3.464844 24.757812 0 24.757812 0 Z "/>
<path style="fill:none;stroke-width:16;stroke-linecap:round;stroke-linejoin:round;stroke:rgb(100%,0%,0%);stroke-opacity:1;stroke-miterlimit:10;" d="M 135 74.996094 C 184.074219 46.664062 285.320312 -36.613281 305 74.996094 "/>
<path style="fill:none;stroke-width:1;stroke-linecap:round;stroke-linejoin:miter;stroke:rgb(0%,0%,0%);stroke-opacity:1;stroke-miterlimit:10;" d="M 175.5 62.5 C 175.5 62.5 275.5 62.5 275.5 62.5 C 275.5 62.5 275.5 112.5 275.5 112.5 C 275.5 112.5 175.5 112.5 175.5 112.5 C 175.5 112.5 175.5 62.5 175.5 62.5 Z "/>
</g>
</svg>
