<?xml version="1.0" encoding="UTF-8"?>
<svg xmlns="http://www.w3.org/2000/svg" xmlns:xlink="http://www.w3.org/1999/xlink" width="405pt" height="141pt" viewBox="0 0 405 141" version="1.1">
<g id="surface108876">
<path style=" stroke:none;fill-rule:evenodd;fill:rgb(0%,0%,0%);fill-opacity:1;" d="M 125 101.265625 C 125 123.355469 107.089844 141.265625 85 141.265625 C 62.910156 141.265625 45 123.355469 45 101.265625 C 45 79.175781 62.910156 61.265625 85 61.265625 C 107.089844 61.265625 125 79.175781 125 101.265625 Z "/>
<path style=" stroke:none;fill-rule:evenodd;fill:rgb(0%,0%,0%);fill-opacity:1;" d="M 365 101.265625 C 365 123.355469 347.089844 141.265625 325 141.265625 C 302.910156 141.265625 285 123.355469 285 101.265625 C 285 79.175781 302.910156 61.265625 325 61.265625 C 347.089844 61.265625 365 79.175781 365 101.265625 Z "/>
<path style=" stroke:none;fill-rule:nonzero;fill:rgb(100%,0%,0%);fill-opacity:1;" d="M 5 51.265625 C 5 51.265625 405 51.265625 405 51.265625 C 405 51.265625 405 111.265625 405 111.265625 C 405 111.265625 5 111.265625 5 111.265625 C 5 111.265625 5 51.265625 5 51.265625 Z "/>
<path style=" stroke:none;fill-rule:nonzero;fill:rgb(0%,0%,0%);fill-opacity:1;" d="M 247 69.265625 C 247 69.265625 263 69.265625 263 69.265625 C 263 69.265625 263 73.265625 263 73.265625 C 263 73.265625 247 73.265625 247 73.265625 C 247 73.265625 247 69.265625 247 69.265625 Z "/>
<path style=" stroke:none;fill-rule:nonzero;fill:rgb(0%,0%,0%);fill-opacity:1;" d="M 0 97.265625 C 0 97.265625 6 97.265625 6 97.265625 C 6 97.265625 6 105.265625 6 105.265625 C 6 105.265625 0 105.265625 0 105.265625 C 0 105.265625 0 97.265625 0 97.265625 Z "/>
<path style=" stroke:none;fill-rule:nonzero;fill:rgb(0%,0%,0%);fill-opacity:1;" d="M 0 87.265625 C 0 87.265625 6 87.265625 6 87.265625 C 6 87.265625 6 95.265625 6 95.265625 C 6 95.265625 0 95.265625 0 95.265625 C 0 95.265625 0 87.265625 0 87.265625 Z "/>
<path style=" stroke:none;fill-rule:nonzero;fill:rgb(0%,0%,0%);fill-opacity:1;" d="M 0 77.265625 C 0 77.265625 6 77.265625 6 77.265625 C 6 77.265625 6 85.265625 6 85.265625 C 6 85.265625 0 85.265625 0 85.265625 C 0 85.265625 0 77.265625 0 77.265625 Z "/>
<path style=" stroke:none;fill-rule:nonzero;fill:rgb(100%,0%,0%);fill-opacity:1;" d="M 5 59.265625 C 5 59.265625 145 59.265625 145 59.265625 C 145 59.265625 145 63.265625 145 63.265625 C 145 63.265625 5 63.265625 5 63.265625 C 5 63.265625 5 59.265625 5 59.265625 Z "/>
<path style="fill:none;stroke-width:16;stroke-linecap:round;stroke-linejoin:round;stroke:rgb(100%,0%,0%);stroke-opacity:1;stroke-miterlimit:10;" d="M 135 64.53125 C 184.074219 36.199219 285.320312 -47.082031 305 64.53125 "/>
<path style="fill:none;stroke-width:1;stroke-linecap:round;stroke-linejoin:miter;stroke:rgb(0%,0%,0%);stroke-opacity:1;stroke-miterlimit:10;" d="M 175.5 52.5 C 175.5 52.5 275.5 52.5 275.5 52.5 C 275.5 52.5 275.5 102.5 275.5 102.5 C 275.5 102.5 175.5 102.5 175.5 102.5 C 175.5 102.5 175.5 52.5 175.5 52.5 Z "/>
</g>
</svg>
