<?xml version="1.0" encoding="UTF-8"?>
<svg xmlns="http://www.w3.org/2000/svg" xmlns:xlink="http://www.w3.org/1999/xlink" width="460pt" height="234pt" viewBox="0 0 460 234" version="1.1">
<g id="surface108896">
<path style="fill:none;stroke-width:1;stroke-linecap:round;stroke-linejoin:miter;stroke:rgb(0%,0%,0%);stroke-opacity:1;stroke-miterlimit:10;" d="M 80.5 204.5 C 80.5 212.5 69.5 219.5 54.5 219.5 C 40.5 219.5 28.5 212.5 28.5 204.5 C 28.5 195.5 40.5 189.5 54.5 189.5 C 69.5 189.5 80.5 195.5 80.5 204.5 Z "/>
<path style=" stroke:none;fill-rule:evenodd;fill:rgb(0%,100%,0%);fill-opacity:1;" d="M 80.789062 204.21875 C 80.789062 212.503906 69.035156 219.21875 54.539062 219.21875 C 40.039062 219.21875 28.289062 212.503906 28.289062 204.21875 C 28.289062 195.9375 40.039062 189.21875 54.539062 189.21875 C 69.035156 189.21875 80.789062 195.9375 80.789062 204.21875 Z "/>
<path style=" stroke:none;fill-rule:nonzero;fill:rgb(0%,100%,0%);fill-opacity:1;" d="M 8.660156 199.898438 C 8.660156 199.898438 0 194.898438 0 194.898438 C 0 194.898438 8 181.042969 8 181.042969 C 8 181.042969 16.660156 186.042969 16.660156 186.042969 C 16.660156 186.042969 8.660156 199.898438 8.660156 199.898438 Z "/>
<path style="fill:none;stroke-width:1;stroke-linecap:round;stroke-linejoin:miter;stroke:rgb(0%,0%,0%);stroke-opacity:1;stroke-miterlimit:10;" d="M 8.5 199.5 C 8.5 199.5 0.5 194.5 0.5 194.5 C 0.5 194.5 8.5 181.5 8.5 181.5 C 8.5 181.5 16.5 186.5 16.5 186.5 C 16.5 186.5 8.5 199.5 8.5 199.5 Z "/>
<path style="fill:none;stroke-width:1;stroke-linecap:round;stroke-linejoin:miter;stroke:rgb(0%,0%,0%);stroke-opacity:1;stroke-miterlimit:10;" d="M 42.5 219.5 C 42.5 219.5 7.5 199.5 7.5 199.5 C 7.5 199.5 15.5 185.5 15.5 185.5 C 15.5 185.5 50.5 205.5 50.5 205.5 C 50.5 205.5 42.5 219.5 42.5 219.5 Z "/>
<path style=" stroke:none;fill-rule:nonzero;fill:rgb(0%,100%,0%);fill-opacity:1;" d="M 42.433594 219.398438 C 42.433594 219.398438 7.792969 199.398438 7.792969 199.398438 C 7.792969 199.398438 15.792969 185.542969 15.792969 185.542969 C 15.792969 185.542969 50.433594 205.542969 50.433594 205.542969 C 50.433594 205.542969 42.433594 219.398438 42.433594 219.398438 Z "/>
<path style=" stroke:none;fill-rule:nonzero;fill:rgb(0%,100%,0%);fill-opacity:1;" d="M 64.414062 180.042969 C 64.414062 180.042969 73.078125 175.042969 73.078125 175.042969 C 73.078125 175.042969 81.078125 188.898438 81.078125 188.898438 C 81.078125 188.898438 72.414062 193.898438 72.414062 193.898438 C 72.414062 193.898438 64.414062 180.042969 64.414062 180.042969 Z "/>
<path style="fill:none;stroke-width:1;stroke-linecap:round;stroke-linejoin:miter;stroke:rgb(0%,0%,0%);stroke-opacity:1;stroke-miterlimit:10;" d="M 64.5 180.5 C 64.5 180.5 73.5 175.5 73.5 175.5 C 73.5 175.5 81.5 188.5 81.5 188.5 C 81.5 188.5 72.5 193.5 72.5 193.5 C 72.5 193.5 64.5 180.5 64.5 180.5 Z "/>
<path style="fill:none;stroke-width:1;stroke-linecap:round;stroke-linejoin:miter;stroke:rgb(0%,0%,0%);stroke-opacity:1;stroke-miterlimit:10;" d="M 30.5 199.5 C 30.5 199.5 65.5 179.5 65.5 179.5 C 65.5 179.5 73.5 193.5 73.5 193.5 C 73.5 193.5 38.5 213.5 38.5 213.5 C 38.5 213.5 30.5 199.5 30.5 199.5 Z "/>
<path style=" stroke:none;fill-rule:nonzero;fill:rgb(0%,100%,0%);fill-opacity:1;" d="M 30.640625 199.542969 C 30.640625 199.542969 65.28125 179.542969 65.28125 179.542969 C 65.28125 179.542969 73.28125 193.398438 73.28125 193.398438 C 73.28125 193.398438 38.640625 213.398438 38.640625 213.398438 C 38.640625 213.398438 30.640625 199.542969 30.640625 199.542969 Z "/>
<path style=" stroke:none;fill-rule:nonzero;fill:rgb(0%,0%,0%);fill-opacity:1;" d="M 34.902344 209.480469 C 34.902344 209.480469 44.558594 212.070312 44.558594 212.070312 C 44.558594 212.070312 41.972656 202.410156 41.972656 202.410156 C 41.972656 202.410156 34.902344 209.480469 34.902344 209.480469 Z "/>
<path style=" stroke:none;fill-rule:nonzero;fill:rgb(0%,0%,0%);fill-opacity:1;" d="M 36.933594 214.386719 C 36.933594 214.386719 46.933594 214.386719 46.933594 214.386719 C 46.933594 214.386719 41.933594 205.726562 41.933594 205.726562 C 41.933594 205.726562 36.933594 214.386719 36.933594 214.386719 Z "/>
<path style=" stroke:none;fill-rule:nonzero;fill:rgb(0%,0%,0%);fill-opacity:1;" d="M 40.164062 218.597656 C 40.164062 218.597656 49.820312 216.007812 49.820312 216.007812 C 49.820312 216.007812 42.75 208.9375 42.75 208.9375 C 42.75 208.9375 40.164062 218.597656 40.164062 218.597656 Z "/>
<path style=" stroke:none;fill-rule:nonzero;fill:rgb(0%,0%,0%);fill-opacity:1;" d="M 44.375 221.828125 C 44.375 221.828125 53.035156 216.828125 53.035156 216.828125 C 53.035156 216.828125 44.375 211.828125 44.375 211.828125 C 44.375 211.828125 44.375 221.828125 44.375 221.828125 Z "/>
<path style=" stroke:none;fill-rule:nonzero;fill:rgb(0%,0%,0%);fill-opacity:1;" d="M 49.277344 223.859375 C 49.277344 223.859375 56.347656 216.785156 56.347656 216.785156 C 56.347656 216.785156 46.6875 214.199219 46.6875 214.199219 C 46.6875 214.199219 49.277344 223.859375 49.277344 223.859375 Z "/>
<path style=" stroke:none;fill-rule:nonzero;fill:rgb(0%,0%,0%);fill-opacity:1;" d="M 54.539062 224.550781 C 54.539062 224.550781 59.539062 215.890625 59.539062 215.890625 C 59.539062 215.890625 49.539062 215.890625 49.539062 215.890625 C 49.539062 215.890625 54.539062 224.550781 54.539062 224.550781 Z "/>
<path style=" stroke:none;fill-rule:nonzero;fill:rgb(0%,0%,0%);fill-opacity:1;" d="M 59.800781 223.859375 C 59.800781 223.859375 62.386719 214.199219 62.386719 214.199219 C 62.386719 214.199219 52.730469 216.785156 52.730469 216.785156 C 52.730469 216.785156 59.800781 223.859375 59.800781 223.859375 Z "/>
<path style=" stroke:none;fill-rule:nonzero;fill:rgb(0%,0%,0%);fill-opacity:1;" d="M 64.703125 221.828125 C 64.703125 221.828125 64.703125 211.828125 64.703125 211.828125 C 64.703125 211.828125 56.042969 216.828125 56.042969 216.828125 C 56.042969 216.828125 64.703125 221.828125 64.703125 221.828125 Z "/>
<path style=" stroke:none;fill-rule:nonzero;fill:rgb(0%,0%,0%);fill-opacity:1;" d="M 68.914062 218.597656 C 68.914062 218.597656 66.324219 208.9375 66.324219 208.9375 C 66.324219 208.9375 59.253906 216.007812 59.253906 216.007812 C 59.253906 216.007812 68.914062 218.597656 68.914062 218.597656 Z "/>
<path style=" stroke:none;fill-rule:nonzero;fill:rgb(0%,0%,0%);fill-opacity:1;" d="M 72.144531 214.386719 C 72.144531 214.386719 67.144531 205.726562 67.144531 205.726562 C 67.144531 205.726562 62.144531 214.386719 62.144531 214.386719 C 62.144531 214.386719 72.144531 214.386719 72.144531 214.386719 Z "/>
<path style=" stroke:none;fill-rule:nonzero;fill:rgb(0%,0%,0%);fill-opacity:1;" d="M 74.175781 209.480469 C 74.175781 209.480469 67.105469 202.410156 67.105469 202.410156 C 67.105469 202.410156 64.515625 212.070312 64.515625 212.070312 C 64.515625 212.070312 74.175781 209.480469 74.175781 209.480469 Z "/>
<path style=" stroke:none;fill-rule:evenodd;fill:rgb(0%,100%,0%);fill-opacity:1;" d="M 70.539062 204.21875 C 70.539062 213.058594 63.375 220.21875 54.539062 220.21875 C 45.703125 220.21875 38.539062 213.058594 38.539062 204.21875 C 38.539062 195.382812 45.703125 188.21875 54.539062 188.21875 C 63.375 188.21875 70.539062 195.382812 70.539062 204.21875 Z "/>
<path style="fill:none;stroke-width:1;stroke-linecap:round;stroke-linejoin:miter;stroke:rgb(0%,0%,0%);stroke-opacity:1;stroke-miterlimit:10;" d="M 70.5 204.5 C 70.5 213.5 63.5 220.5 54.5 220.5 C 45.5 220.5 38.5 213.5 38.5 204.5 C 38.5 195.5 45.5 188.5 54.5 188.5 C 63.5 188.5 70.5 195.5 70.5 204.5 Z "/>
<path style="fill:none;stroke-width:2;stroke-linecap:round;stroke-linejoin:round;stroke:rgb(0%,0%,0%);stroke-opacity:1;stroke-miterlimit:10;" d="M 42.710938 200.390625 L 48.367188 206.046875 "/>
<path style="fill:none;stroke-width:2;stroke-linecap:round;stroke-linejoin:round;stroke:rgb(0%,0%,0%);stroke-opacity:1;stroke-miterlimit:10;" d="M 42.710938 206.046875 L 48.367188 200.390625 "/>
<path style="fill:none;stroke-width:2;stroke-linecap:round;stroke-linejoin:round;stroke:rgb(0%,0%,0%);stroke-opacity:1;stroke-miterlimit:10;" d="M 58.710938 200.390625 L 64.367188 206.046875 "/>
<path style="fill:none;stroke-width:2;stroke-linecap:round;stroke-linejoin:round;stroke:rgb(0%,0%,0%);stroke-opacity:1;stroke-miterlimit:10;" d="M 58.710938 206.046875 L 64.367188 200.390625 "/>
<path style=" stroke:none;fill-rule:nonzero;fill:rgb(0%,0%,0%);fill-opacity:1;" d="M 429.539062 193.21875 C 429.539062 193.21875 459.539062 193.21875 459.539062 193.21875 C 459.539062 193.21875 459.539062 195.21875 459.539062 195.21875 C 459.539062 195.21875 429.539062 195.21875 429.539062 195.21875 C 429.539062 195.21875 429.539062 193.21875 429.539062 193.21875 Z "/>
<path style=" stroke:none;fill-rule:nonzero;fill:rgb(0%,0%,0%);fill-opacity:1;" d="M 429.539062 171.21875 C 429.539062 171.21875 459.539062 171.21875 459.539062 171.21875 C 459.539062 171.21875 459.539062 173.21875 459.539062 173.21875 C 459.539062 173.21875 429.539062 173.21875 429.539062 173.21875 C 429.539062 173.21875 429.539062 171.21875 429.539062 171.21875 Z "/>
<path style=" stroke:none;fill-rule:nonzero;fill:rgb(0%,0%,0%);fill-opacity:1;" d="M 429.539062 149.21875 C 429.539062 149.21875 459.539062 149.21875 459.539062 149.21875 C 459.539062 149.21875 459.539062 151.21875 459.539062 151.21875 C 459.539062 151.21875 429.539062 151.21875 429.539062 151.21875 C 429.539062 151.21875 429.539062 149.21875 429.539062 149.21875 Z "/>
<path style=" stroke:none;fill-rule:evenodd;fill:rgb(0%,100%,100%);fill-opacity:1;" d="M 278.539062 152.21875 C 278.539062 168.789062 265.105469 182.21875 248.539062 182.21875 C 231.96875 182.21875 218.539062 168.789062 218.539062 152.21875 C 218.539062 135.652344 231.96875 122.21875 248.539062 122.21875 C 265.105469 122.21875 278.539062 135.652344 278.539062 152.21875 Z "/>
<path style="fill:none;stroke-width:1;stroke-linecap:round;stroke-linejoin:miter;stroke:rgb(0%,0%,0%);stroke-opacity:1;stroke-miterlimit:10;" d="M 278.5 152.5 C 278.5 168.5 265.5 182.5 248.5 182.5 C 231.5 182.5 218.5 168.5 218.5 152.5 C 218.5 135.5 231.5 122.5 248.5 122.5 C 265.5 122.5 278.5 135.5 278.5 152.5 Z "/>
<path style=" stroke:none;fill-rule:evenodd;fill:rgb(0%,100%,100%);fill-opacity:1;" d="M 260.539062 112.21875 C 260.539062 121.058594 253.375 128.21875 244.539062 128.21875 C 235.703125 128.21875 228.539062 121.058594 228.539062 112.21875 C 228.539062 103.382812 235.703125 96.21875 244.539062 96.21875 C 253.375 96.21875 260.539062 103.382812 260.539062 112.21875 Z "/>
<path style="fill:none;stroke-width:1;stroke-linecap:round;stroke-linejoin:miter;stroke:rgb(0%,0%,0%);stroke-opacity:1;stroke-miterlimit:10;" d="M 260.5 112.5 C 260.5 121.5 253.5 128.5 244.5 128.5 C 235.5 128.5 228.5 121.5 228.5 112.5 C 228.5 103.5 235.5 96.5 244.5 96.5 C 253.5 96.5 260.5 103.5 260.5 112.5 Z "/>
<path style=" stroke:none;fill-rule:nonzero;fill:rgb(0%,0%,0%);fill-opacity:1;" d="M 232.796875 121.253906 C 232.796875 121.253906 240.523438 123.324219 240.523438 123.324219 C 240.523438 123.324219 240.007812 125.257812 240.007812 125.257812 C 240.007812 125.257812 232.28125 123.1875 232.28125 123.1875 C 232.28125 123.1875 232.796875 121.253906 232.796875 121.253906 Z "/>
<path style=" stroke:none;fill-rule:nonzero;fill:rgb(0%,0%,100%);fill-opacity:1;" d="M 231.539062 110.21875 C 231.539062 110.21875 237.539062 110.21875 237.539062 110.21875 C 237.539062 110.21875 237.539062 114.21875 237.539062 114.21875 C 237.539062 114.21875 231.539062 114.21875 231.539062 114.21875 C 231.539062 114.21875 231.539062 110.21875 231.539062 110.21875 Z "/>
<path style=" stroke:none;fill-rule:nonzero;fill:rgb(0%,0%,0%);fill-opacity:1;" d="M 268.039062 105.921875 C 268.039062 105.921875 260.96875 112.996094 260.96875 112.996094 C 260.96875 112.996094 258.378906 103.335938 258.378906 103.335938 C 258.378906 103.335938 268.039062 105.921875 268.039062 105.921875 Z "/>
<path style=" stroke:none;fill-rule:nonzero;fill:rgb(0%,0%,0%);fill-opacity:1;" d="M 265.609375 100.054688 C 265.609375 100.054688 260.609375 108.714844 260.609375 108.714844 C 260.609375 108.714844 255.609375 100.054688 255.609375 100.054688 C 255.609375 100.054688 265.609375 100.054688 265.609375 100.054688 Z "/>
<path style=" stroke:none;fill-rule:nonzero;fill:rgb(0%,0%,0%);fill-opacity:1;" d="M 261.742188 95.015625 C 261.742188 95.015625 259.152344 104.675781 259.152344 104.675781 C 259.152344 104.675781 252.082031 97.605469 252.082031 97.605469 C 252.082031 97.605469 261.742188 95.015625 261.742188 95.015625 Z "/>
<path style=" stroke:none;fill-rule:nonzero;fill:rgb(0%,0%,0%);fill-opacity:1;" d="M 256.703125 91.148438 C 256.703125 91.148438 256.703125 101.148438 256.703125 101.148438 C 256.703125 101.148438 248.042969 96.148438 248.042969 96.148438 C 248.042969 96.148438 256.703125 91.148438 256.703125 91.148438 Z "/>
<path style=" stroke:none;fill-rule:nonzero;fill:rgb(0%,0%,0%);fill-opacity:1;" d="M 250.835938 88.71875 C 250.835938 88.71875 253.421875 98.378906 253.421875 98.378906 C 253.421875 98.378906 243.765625 95.789062 243.765625 95.789062 C 243.765625 95.789062 250.835938 88.71875 250.835938 88.71875 Z "/>
<path style=" stroke:none;fill-rule:nonzero;fill:rgb(0%,0%,0%);fill-opacity:1;" d="M 244.539062 87.890625 C 244.539062 87.890625 249.539062 96.550781 249.539062 96.550781 C 249.539062 96.550781 239.539062 96.550781 239.539062 96.550781 C 239.539062 96.550781 244.539062 87.890625 244.539062 87.890625 Z "/>
<path style=" stroke:none;fill-rule:nonzero;fill:rgb(0%,0%,0%);fill-opacity:1;" d="M 238.242188 88.71875 C 238.242188 88.71875 245.3125 95.789062 245.3125 95.789062 C 245.3125 95.789062 235.652344 98.378906 235.652344 98.378906 C 235.652344 98.378906 238.242188 88.71875 238.242188 88.71875 Z "/>
<path style=" stroke:none;fill-rule:nonzero;fill:rgb(0%,0%,0%);fill-opacity:1;" d="M 232.375 91.148438 C 232.375 91.148438 241.035156 96.148438 241.035156 96.148438 C 241.035156 96.148438 232.375 101.148438 232.375 101.148438 C 232.375 101.148438 232.375 91.148438 232.375 91.148438 Z "/>
<path style=" stroke:none;fill-rule:nonzero;fill:rgb(0%,0%,0%);fill-opacity:1;" d="M 227.335938 95.015625 C 227.335938 95.015625 236.992188 97.605469 236.992188 97.605469 C 236.992188 97.605469 229.921875 104.675781 229.921875 104.675781 C 229.921875 104.675781 227.335938 95.015625 227.335938 95.015625 Z "/>
<path style=" stroke:none;fill-rule:evenodd;fill:rgb(0%,0%,0%);fill-opacity:1;" d="M 134.539062 178.21875 C 134.539062 200.3125 116.628906 218.21875 94.539062 218.21875 C 72.445312 218.21875 54.539062 200.3125 54.539062 178.21875 C 54.539062 156.128906 72.445312 138.21875 94.539062 138.21875 C 116.628906 138.21875 134.539062 156.128906 134.539062 178.21875 Z "/>
<path style=" stroke:none;fill-rule:evenodd;fill:rgb(0%,0%,0%);fill-opacity:1;" d="M 374.539062 178.21875 C 374.539062 200.3125 356.628906 218.21875 334.539062 218.21875 C 312.445312 218.21875 294.539062 200.3125 294.539062 178.21875 C 294.539062 156.128906 312.445312 138.21875 334.539062 138.21875 C 356.628906 138.21875 374.539062 156.128906 374.539062 178.21875 Z "/>
<path style=" stroke:none;fill-rule:nonzero;fill:rgb(100%,0%,0%);fill-opacity:1;" d="M 14.539062 128.21875 C 14.539062 128.21875 414.539062 128.21875 414.539062 128.21875 C 414.539062 128.21875 414.539062 188.21875 414.539062 188.21875 C 414.539062 188.21875 14.539062 188.21875 14.539062 188.21875 C 14.539062 188.21875 14.539062 128.21875 14.539062 128.21875 Z "/>
<path style=" stroke:none;fill-rule:nonzero;fill:rgb(0%,0%,0%);fill-opacity:1;" d="M 256.539062 146.21875 C 256.539062 146.21875 272.539062 146.21875 272.539062 146.21875 C 272.539062 146.21875 272.539062 150.21875 272.539062 150.21875 C 272.539062 150.21875 256.539062 150.21875 256.539062 150.21875 C 256.539062 150.21875 256.539062 146.21875 256.539062 146.21875 Z "/>
<path style=" stroke:none;fill-rule:nonzero;fill:rgb(0%,0%,0%);fill-opacity:1;" d="M 9.539062 174.21875 C 9.539062 174.21875 15.539062 174.21875 15.539062 174.21875 C 15.539062 174.21875 15.539062 182.21875 15.539062 182.21875 C 15.539062 182.21875 9.539062 182.21875 9.539062 182.21875 C 9.539062 182.21875 9.539062 174.21875 9.539062 174.21875 Z "/>
<path style=" stroke:none;fill-rule:nonzero;fill:rgb(0%,0%,0%);fill-opacity:1;" d="M 9.539062 164.21875 C 9.539062 164.21875 15.539062 164.21875 15.539062 164.21875 C 15.539062 164.21875 15.539062 172.21875 15.539062 172.21875 C 15.539062 172.21875 9.539062 172.21875 9.539062 172.21875 C 9.539062 172.21875 9.539062 164.21875 9.539062 164.21875 Z "/>
<path style=" stroke:none;fill-rule:nonzero;fill:rgb(0%,0%,0%);fill-opacity:1;" d="M 9.539062 154.21875 C 9.539062 154.21875 15.539062 154.21875 15.539062 154.21875 C 15.539062 154.21875 15.539062 162.21875 15.539062 162.21875 C 15.539062 162.21875 9.539062 162.21875 9.539062 162.21875 C 9.539062 162.21875 9.539062 154.21875 9.539062 154.21875 Z "/>
<path style=" stroke:none;fill-rule:nonzero;fill:rgb(100%,0%,0%);fill-opacity:1;" d="M 180.820312 0.695312 C 180.820312 0.695312 156.507812 138.566406 156.507812 138.566406 C 156.507812 138.566406 152.570312 137.875 152.570312 137.875 C 152.570312 137.875 176.878906 0 176.878906 0 C 176.878906 0 180.820312 0.695312 180.820312 0.695312 Z "/>
<path style="fill:none;stroke-width:16;stroke-linecap:round;stroke-linejoin:round;stroke:rgb(100%,0%,0%);stroke-opacity:1;stroke-miterlimit:10;" d="M 144.539062 141.484375 C 193.613281 113.152344 294.859375 29.875 314.539062 141.484375 "/>
<path style="fill:none;stroke-width:1;stroke-linecap:round;stroke-linejoin:miter;stroke:rgb(0%,0%,0%);stroke-opacity:1;stroke-miterlimit:10;" d="M 184.5 129.5 C 184.5 129.5 284.5 129.5 284.5 129.5 C 284.5 129.5 284.5 179.5 284.5 179.5 C 284.5 179.5 184.5 179.5 184.5 179.5 C 184.5 179.5 184.5 129.5 184.5 129.5 Z "/>
<path style="fill:none;stroke-width:1;stroke-linecap:round;stroke-linejoin:miter;stroke:rgb(0%,0%,0%);stroke-opacity:1;stroke-miterlimit:10;" d="M 170.5 200.5 C 170.5 208.5 159.5 215.5 144.5 215.5 C 130.5 215.5 118.5 208.5 118.5 200.5 C 118.5 191.5 130.5 185.5 144.5 185.5 C 159.5 185.5 170.5 191.5 170.5 200.5 Z "/>
<path style=" stroke:none;fill-rule:evenodd;fill:rgb(0%,100%,0%);fill-opacity:1;" d="M 170.789062 200.21875 C 170.789062 208.503906 159.035156 215.21875 144.539062 215.21875 C 130.039062 215.21875 118.289062 208.503906 118.289062 200.21875 C 118.289062 191.9375 130.039062 185.21875 144.539062 185.21875 C 159.035156 185.21875 170.789062 191.9375 170.789062 200.21875 Z "/>
<path style=" stroke:none;fill-rule:nonzero;fill:rgb(0%,100%,0%);fill-opacity:1;" d="M 172.414062 200.542969 C 172.414062 200.542969 181.078125 205.542969 181.078125 205.542969 C 181.078125 205.542969 173.078125 219.398438 173.078125 219.398438 C 173.078125 219.398438 164.414062 214.398438 164.414062 214.398438 C 164.414062 214.398438 172.414062 200.542969 172.414062 200.542969 Z "/>
<path style="fill:none;stroke-width:1;stroke-linecap:round;stroke-linejoin:miter;stroke:rgb(0%,0%,0%);stroke-opacity:1;stroke-miterlimit:10;" d="M 172.5 200.5 C 172.5 200.5 181.5 205.5 181.5 205.5 C 181.5 205.5 173.5 219.5 173.5 219.5 C 173.5 219.5 164.5 214.5 164.5 214.5 C 164.5 214.5 172.5 200.5 172.5 200.5 Z "/>
<path style="fill:none;stroke-width:1;stroke-linecap:round;stroke-linejoin:miter;stroke:rgb(0%,0%,0%);stroke-opacity:1;stroke-miterlimit:10;" d="M 138.5 181.5 C 138.5 181.5 173.5 201.5 173.5 201.5 C 173.5 201.5 165.5 214.5 165.5 214.5 C 165.5 214.5 130.5 194.5 130.5 194.5 C 130.5 194.5 138.5 181.5 138.5 181.5 Z "/>
<path style=" stroke:none;fill-rule:nonzero;fill:rgb(0%,100%,0%);fill-opacity:1;" d="M 138.640625 181.042969 C 138.640625 181.042969 173.28125 201.042969 173.28125 201.042969 C 173.28125 201.042969 165.28125 214.898438 165.28125 214.898438 C 165.28125 214.898438 130.640625 194.898438 130.640625 194.898438 C 130.640625 194.898438 138.640625 181.042969 138.640625 181.042969 Z "/>
<path style=" stroke:none;fill-rule:nonzero;fill:rgb(0%,100%,0%);fill-opacity:1;" d="M 128.660156 220.398438 C 128.660156 220.398438 120 225.398438 120 225.398438 C 120 225.398438 112 211.542969 112 211.542969 C 112 211.542969 120.660156 206.542969 120.660156 206.542969 C 120.660156 206.542969 128.660156 220.398438 128.660156 220.398438 Z "/>
<path style="fill:none;stroke-width:1;stroke-linecap:round;stroke-linejoin:miter;stroke:rgb(0%,0%,0%);stroke-opacity:1;stroke-miterlimit:10;" d="M 128.5 220.5 C 128.5 220.5 120.5 225.5 120.5 225.5 C 120.5 225.5 112.5 211.5 112.5 211.5 C 112.5 211.5 120.5 206.5 120.5 206.5 C 120.5 206.5 128.5 220.5 128.5 220.5 Z "/>
<path style="fill:none;stroke-width:1;stroke-linecap:round;stroke-linejoin:miter;stroke:rgb(0%,0%,0%);stroke-opacity:1;stroke-miterlimit:10;" d="M 162.5 200.5 C 162.5 200.5 127.5 220.5 127.5 220.5 C 127.5 220.5 119.5 207.5 119.5 207.5 C 119.5 207.5 154.5 187.5 154.5 187.5 C 154.5 187.5 162.5 200.5 162.5 200.5 Z "/>
<path style=" stroke:none;fill-rule:nonzero;fill:rgb(0%,100%,0%);fill-opacity:1;" d="M 162.433594 200.898438 C 162.433594 200.898438 127.792969 220.898438 127.792969 220.898438 C 127.792969 220.898438 119.792969 207.042969 119.792969 207.042969 C 119.792969 207.042969 154.433594 187.042969 154.433594 187.042969 C 154.433594 187.042969 162.433594 200.898438 162.433594 200.898438 Z "/>
<path style=" stroke:none;fill-rule:nonzero;fill:rgb(0%,0%,0%);fill-opacity:1;" d="M 164.175781 194.957031 C 164.175781 194.957031 154.515625 192.371094 154.515625 192.371094 C 154.515625 192.371094 157.105469 202.03125 157.105469 202.03125 C 157.105469 202.03125 164.175781 194.957031 164.175781 194.957031 Z "/>
<path style=" stroke:none;fill-rule:nonzero;fill:rgb(0%,0%,0%);fill-opacity:1;" d="M 162.144531 190.054688 C 162.144531 190.054688 152.144531 190.054688 152.144531 190.054688 C 152.144531 190.054688 157.144531 198.714844 157.144531 198.714844 C 157.144531 198.714844 162.144531 190.054688 162.144531 190.054688 Z "/>
<path style=" stroke:none;fill-rule:nonzero;fill:rgb(0%,0%,0%);fill-opacity:1;" d="M 158.914062 185.84375 C 158.914062 185.84375 149.253906 188.433594 149.253906 188.433594 C 149.253906 188.433594 156.324219 195.503906 156.324219 195.503906 C 156.324219 195.503906 158.914062 185.84375 158.914062 185.84375 Z "/>
<path style=" stroke:none;fill-rule:nonzero;fill:rgb(0%,0%,0%);fill-opacity:1;" d="M 154.703125 182.613281 C 154.703125 182.613281 146.042969 187.613281 146.042969 187.613281 C 146.042969 187.613281 154.703125 192.613281 154.703125 192.613281 C 154.703125 192.613281 154.703125 182.613281 154.703125 182.613281 Z "/>
<path style=" stroke:none;fill-rule:nonzero;fill:rgb(0%,0%,0%);fill-opacity:1;" d="M 149.800781 180.582031 C 149.800781 180.582031 142.730469 187.652344 142.730469 187.652344 C 142.730469 187.652344 152.386719 190.242188 152.386719 190.242188 C 152.386719 190.242188 149.800781 180.582031 149.800781 180.582031 Z "/>
<path style=" stroke:none;fill-rule:nonzero;fill:rgb(0%,0%,0%);fill-opacity:1;" d="M 144.539062 179.890625 C 144.539062 179.890625 139.539062 188.550781 139.539062 188.550781 C 139.539062 188.550781 149.539062 188.550781 149.539062 188.550781 C 149.539062 188.550781 144.539062 179.890625 144.539062 179.890625 Z "/>
<path style=" stroke:none;fill-rule:nonzero;fill:rgb(0%,0%,0%);fill-opacity:1;" d="M 139.277344 180.582031 C 139.277344 180.582031 136.6875 190.242188 136.6875 190.242188 C 136.6875 190.242188 146.347656 187.652344 146.347656 187.652344 C 146.347656 187.652344 139.277344 180.582031 139.277344 180.582031 Z "/>
<path style=" stroke:none;fill-rule:nonzero;fill:rgb(0%,0%,0%);fill-opacity:1;" d="M 134.375 182.613281 C 134.375 182.613281 134.375 192.613281 134.375 192.613281 C 134.375 192.613281 143.035156 187.613281 143.035156 187.613281 C 143.035156 187.613281 134.375 182.613281 134.375 182.613281 Z "/>
<path style=" stroke:none;fill-rule:nonzero;fill:rgb(0%,0%,0%);fill-opacity:1;" d="M 130.164062 185.84375 C 130.164062 185.84375 132.75 195.503906 132.75 195.503906 C 132.75 195.503906 139.820312 188.433594 139.820312 188.433594 C 139.820312 188.433594 130.164062 185.84375 130.164062 185.84375 Z "/>
<path style=" stroke:none;fill-rule:nonzero;fill:rgb(0%,0%,0%);fill-opacity:1;" d="M 126.933594 190.054688 C 126.933594 190.054688 131.933594 198.714844 131.933594 198.714844 C 131.933594 198.714844 136.933594 190.054688 136.933594 190.054688 C 136.933594 190.054688 126.933594 190.054688 126.933594 190.054688 Z "/>
<path style=" stroke:none;fill-rule:nonzero;fill:rgb(0%,0%,0%);fill-opacity:1;" d="M 124.902344 194.957031 C 124.902344 194.957031 131.972656 202.03125 131.972656 202.03125 C 131.972656 202.03125 134.558594 192.371094 134.558594 192.371094 C 134.558594 192.371094 124.902344 194.957031 124.902344 194.957031 Z "/>
<path style=" stroke:none;fill-rule:evenodd;fill:rgb(0%,100%,0%);fill-opacity:1;" d="M 160.539062 200.21875 C 160.539062 209.058594 153.375 216.21875 144.539062 216.21875 C 135.703125 216.21875 128.539062 209.058594 128.539062 200.21875 C 128.539062 191.382812 135.703125 184.21875 144.539062 184.21875 C 153.375 184.21875 160.539062 191.382812 160.539062 200.21875 Z "/>
<path style="fill:none;stroke-width:1;stroke-linecap:round;stroke-linejoin:miter;stroke:rgb(0%,0%,0%);stroke-opacity:1;stroke-miterlimit:10;" d="M 160.5 200.5 C 160.5 209.5 153.5 216.5 144.5 216.5 C 135.5 216.5 128.5 209.5 128.5 200.5 C 128.5 191.5 135.5 184.5 144.5 184.5 C 153.5 184.5 160.5 191.5 160.5 200.5 Z "/>
<path style="fill:none;stroke-width:2;stroke-linecap:round;stroke-linejoin:round;stroke:rgb(0%,0%,0%);stroke-opacity:1;stroke-miterlimit:10;" d="M 156.367188 204.046875 L 150.710938 198.390625 "/>
<path style="fill:none;stroke-width:2;stroke-linecap:round;stroke-linejoin:round;stroke:rgb(0%,0%,0%);stroke-opacity:1;stroke-miterlimit:10;" d="M 156.367188 198.390625 L 150.710938 204.046875 "/>
<path style="fill:none;stroke-width:2;stroke-linecap:round;stroke-linejoin:round;stroke:rgb(0%,0%,0%);stroke-opacity:1;stroke-miterlimit:10;" d="M 140.367188 204.046875 L 134.710938 198.390625 "/>
<path style="fill:none;stroke-width:2;stroke-linecap:round;stroke-linejoin:round;stroke:rgb(0%,0%,0%);stroke-opacity:1;stroke-miterlimit:10;" d="M 140.367188 198.390625 L 134.710938 204.046875 "/>
<path style=" stroke:none;fill-rule:nonzero;fill:rgb(0%,0%,0%);fill-opacity:1;" d="M 185.539062 73.21875 C 185.539062 73.21875 215.539062 73.21875 215.539062 73.21875 C 215.539062 73.21875 215.539062 75.21875 215.539062 75.21875 C 215.539062 75.21875 185.539062 75.21875 185.539062 75.21875 C 185.539062 75.21875 185.539062 73.21875 185.539062 73.21875 Z "/>
<path style=" stroke:none;fill-rule:nonzero;fill:rgb(0%,0%,0%);fill-opacity:1;" d="M 189.539062 51.21875 C 189.539062 51.21875 219.539062 51.21875 219.539062 51.21875 C 219.539062 51.21875 219.539062 53.21875 219.539062 53.21875 C 219.539062 53.21875 189.539062 53.21875 189.539062 53.21875 C 189.539062 53.21875 189.539062 51.21875 189.539062 51.21875 Z "/>
<path style=" stroke:none;fill-rule:nonzero;fill:rgb(0%,0%,0%);fill-opacity:1;" d="M 193.539062 29.21875 C 193.539062 29.21875 223.539062 29.21875 223.539062 29.21875 C 223.539062 29.21875 223.539062 31.21875 223.539062 31.21875 C 223.539062 31.21875 193.539062 31.21875 193.539062 31.21875 C 193.539062 31.21875 193.539062 29.21875 193.539062 29.21875 Z "/>
</g>
</svg>
