<?xml version="1.0" encoding="UTF-8"?>
<svg xmlns="http://www.w3.org/2000/svg" xmlns:xlink="http://www.w3.org/1999/xlink" width="450pt" height="141pt" viewBox="0 0 450 141" version="1.1">
<g id="surface108891">
<path style=" stroke:none;fill-rule:nonzero;fill:rgb(0%,0%,0%);fill-opacity:1;" d="M 420 116.265625 C 420 116.265625 450 116.265625 450 116.265625 C 450 116.265625 450 118.265625 450 118.265625 C 450 118.265625 420 118.265625 420 118.265625 C 420 118.265625 420 116.265625 420 116.265625 Z "/>
<path style=" stroke:none;fill-rule:nonzero;fill:rgb(0%,0%,0%);fill-opacity:1;" d="M 420 94.265625 C 420 94.265625 450 94.265625 450 94.265625 C 450 94.265625 450 96.265625 450 96.265625 C 450 96.265625 420 96.265625 420 96.265625 C 420 96.265625 420 94.265625 420 94.265625 Z "/>
<path style=" stroke:none;fill-rule:nonzero;fill:rgb(0%,0%,0%);fill-opacity:1;" d="M 420 72.265625 C 420 72.265625 450 72.265625 450 72.265625 C 450 72.265625 450 74.265625 450 74.265625 C 450 74.265625 420 74.265625 420 74.265625 C 420 74.265625 420 72.265625 420 72.265625 Z "/>
<path style=" stroke:none;fill-rule:evenodd;fill:rgb(0%,100%,100%);fill-opacity:1;" d="M 269 75.265625 C 269 91.835938 255.570312 105.265625 239 105.265625 C 222.429688 105.265625 209 91.835938 209 75.265625 C 209 58.695312 222.429688 45.265625 239 45.265625 C 255.570312 45.265625 269 58.695312 269 75.265625 Z "/>
<path style="fill:none;stroke-width:1;stroke-linecap:round;stroke-linejoin:miter;stroke:rgb(0%,0%,0%);stroke-opacity:1;stroke-miterlimit:10;" d="M 269.5 75.5 C 269.5 91.5 255.5 105.5 239.5 105.5 C 222.5 105.5 209.5 91.5 209.5 75.5 C 209.5 58.5 222.5 45.5 239.5 45.5 C 255.5 45.5 269.5 58.5 269.5 75.5 Z "/>
<path style=" stroke:none;fill-rule:evenodd;fill:rgb(0%,100%,100%);fill-opacity:1;" d="M 251 35.265625 C 251 44.101562 243.835938 51.265625 235 51.265625 C 226.164062 51.265625 219 44.101562 219 35.265625 C 219 26.429688 226.164062 19.265625 235 19.265625 C 243.835938 19.265625 251 26.429688 251 35.265625 Z "/>
<path style="fill:none;stroke-width:1;stroke-linecap:round;stroke-linejoin:miter;stroke:rgb(0%,0%,0%);stroke-opacity:1;stroke-miterlimit:10;" d="M 251.5 35.5 C 251.5 44.5 243.5 51.5 235.5 51.5 C 226.5 51.5 219.5 44.5 219.5 35.5 C 219.5 26.5 226.5 19.5 235.5 19.5 C 243.5 19.5 251.5 26.5 251.5 35.5 Z "/>
<path style=" stroke:none;fill-rule:nonzero;fill:rgb(0%,0%,0%);fill-opacity:1;" d="M 222.742188 44.300781 C 222.742188 44.300781 230.46875 42.230469 230.46875 42.230469 C 230.46875 42.230469 230.984375 44.160156 230.984375 44.160156 C 230.984375 44.160156 223.257812 46.230469 223.257812 46.230469 C 223.257812 46.230469 222.742188 44.300781 222.742188 44.300781 Z "/>
<path style=" stroke:none;fill-rule:nonzero;fill:rgb(0%,0%,100%);fill-opacity:1;" d="M 222 33.265625 C 222 33.265625 228 33.265625 228 33.265625 C 228 33.265625 228 37.265625 228 37.265625 C 228 37.265625 222 37.265625 222 37.265625 C 222 37.265625 222 33.265625 222 33.265625 Z "/>
<path style=" stroke:none;fill-rule:nonzero;fill:rgb(0%,0%,0%);fill-opacity:1;" d="M 258.5 28.96875 C 258.5 28.96875 251.429688 36.039062 251.429688 36.039062 C 251.429688 36.039062 248.84375 26.378906 248.84375 26.378906 C 248.84375 26.378906 258.5 28.96875 258.5 28.96875 Z "/>
<path style=" stroke:none;fill-rule:nonzero;fill:rgb(0%,0%,0%);fill-opacity:1;" d="M 256.070312 23.101562 C 256.070312 23.101562 251.070312 31.761719 251.070312 31.761719 C 251.070312 31.761719 246.070312 23.101562 246.070312 23.101562 C 246.070312 23.101562 256.070312 23.101562 256.070312 23.101562 Z "/>
<path style=" stroke:none;fill-rule:nonzero;fill:rgb(0%,0%,0%);fill-opacity:1;" d="M 252.203125 18.0625 C 252.203125 18.0625 249.617188 27.722656 249.617188 27.722656 C 249.617188 27.722656 242.542969 20.648438 242.542969 20.648438 C 242.542969 20.648438 252.203125 18.0625 252.203125 18.0625 Z "/>
<path style=" stroke:none;fill-rule:nonzero;fill:rgb(0%,0%,0%);fill-opacity:1;" d="M 247.164062 14.195312 C 247.164062 14.195312 247.164062 24.195312 247.164062 24.195312 C 247.164062 24.195312 238.503906 19.195312 238.503906 19.195312 C 238.503906 19.195312 247.164062 14.195312 247.164062 14.195312 Z "/>
<path style=" stroke:none;fill-rule:nonzero;fill:rgb(0%,0%,0%);fill-opacity:1;" d="M 241.296875 11.765625 C 241.296875 11.765625 243.886719 21.421875 243.886719 21.421875 C 243.886719 21.421875 234.226562 18.835938 234.226562 18.835938 C 234.226562 18.835938 241.296875 11.765625 241.296875 11.765625 Z "/>
<path style=" stroke:none;fill-rule:nonzero;fill:rgb(0%,0%,0%);fill-opacity:1;" d="M 235 10.933594 C 235 10.933594 240 19.597656 240 19.597656 C 240 19.597656 230 19.597656 230 19.597656 C 230 19.597656 235 10.933594 235 10.933594 Z "/>
<path style=" stroke:none;fill-rule:nonzero;fill:rgb(0%,0%,0%);fill-opacity:1;" d="M 228.703125 11.765625 C 228.703125 11.765625 235.773438 18.835938 235.773438 18.835938 C 235.773438 18.835938 226.113281 21.421875 226.113281 21.421875 C 226.113281 21.421875 228.703125 11.765625 228.703125 11.765625 Z "/>
<path style=" stroke:none;fill-rule:nonzero;fill:rgb(0%,0%,0%);fill-opacity:1;" d="M 222.835938 14.195312 C 222.835938 14.195312 231.496094 19.195312 231.496094 19.195312 C 231.496094 19.195312 222.835938 24.195312 222.835938 24.195312 C 222.835938 24.195312 222.835938 14.195312 222.835938 14.195312 Z "/>
<path style=" stroke:none;fill-rule:nonzero;fill:rgb(0%,0%,0%);fill-opacity:1;" d="M 217.796875 18.0625 C 217.796875 18.0625 227.457031 20.648438 227.457031 20.648438 C 227.457031 20.648438 220.382812 27.722656 220.382812 27.722656 C 220.382812 27.722656 217.796875 18.0625 217.796875 18.0625 Z "/>
<path style=" stroke:none;fill-rule:evenodd;fill:rgb(0%,0%,0%);fill-opacity:1;" d="M 125 101.265625 C 125 123.355469 107.089844 141.265625 85 141.265625 C 62.910156 141.265625 45 123.355469 45 101.265625 C 45 79.175781 62.910156 61.265625 85 61.265625 C 107.089844 61.265625 125 79.175781 125 101.265625 Z "/>
<path style=" stroke:none;fill-rule:evenodd;fill:rgb(0%,0%,0%);fill-opacity:1;" d="M 365 101.265625 C 365 123.355469 347.089844 141.265625 325 141.265625 C 302.910156 141.265625 285 123.355469 285 101.265625 C 285 79.175781 302.910156 61.265625 325 61.265625 C 347.089844 61.265625 365 79.175781 365 101.265625 Z "/>
<path style=" stroke:none;fill-rule:nonzero;fill:rgb(100%,0%,0%);fill-opacity:1;" d="M 5 51.265625 C 5 51.265625 405 51.265625 405 51.265625 C 405 51.265625 405 111.265625 405 111.265625 C 405 111.265625 5 111.265625 5 111.265625 C 5 111.265625 5 51.265625 5 51.265625 Z "/>
<path style=" stroke:none;fill-rule:nonzero;fill:rgb(0%,0%,0%);fill-opacity:1;" d="M 247 69.265625 C 247 69.265625 263 69.265625 263 69.265625 C 263 69.265625 263 73.265625 263 73.265625 C 263 73.265625 247 73.265625 247 73.265625 C 247 73.265625 247 69.265625 247 69.265625 Z "/>
<path style=" stroke:none;fill-rule:nonzero;fill:rgb(0%,0%,0%);fill-opacity:1;" d="M 0 97.265625 C 0 97.265625 6 97.265625 6 97.265625 C 6 97.265625 6 105.265625 6 105.265625 C 6 105.265625 0 105.265625 0 105.265625 C 0 105.265625 0 97.265625 0 97.265625 Z "/>
<path style=" stroke:none;fill-rule:nonzero;fill:rgb(0%,0%,0%);fill-opacity:1;" d="M 0 87.265625 C 0 87.265625 6 87.265625 6 87.265625 C 6 87.265625 6 95.265625 6 95.265625 C 6 95.265625 0 95.265625 0 95.265625 C 0 95.265625 0 87.265625 0 87.265625 Z "/>
<path style=" stroke:none;fill-rule:nonzero;fill:rgb(0%,0%,0%);fill-opacity:1;" d="M 0 77.265625 C 0 77.265625 6 77.265625 6 77.265625 C 6 77.265625 6 85.265625 6 85.265625 C 6 85.265625 0 85.265625 0 85.265625 C 0 85.265625 0 77.265625 0 77.265625 Z "/>
<path style=" stroke:none;fill-rule:nonzero;fill:rgb(100%,0%,0%);fill-opacity:1;" d="M 5 59.265625 C 5 59.265625 145 59.265625 145 59.265625 C 145 59.265625 145 63.265625 145 63.265625 C 145 63.265625 5 63.265625 5 63.265625 C 5 63.265625 5 59.265625 5 59.265625 Z "/>
<path style="fill:none;stroke-width:16;stroke-linecap:round;stroke-linejoin:round;stroke:rgb(100%,0%,0%);stroke-opacity:1;stroke-miterlimit:10;" d="M 135 64.53125 C 184.074219 36.199219 285.320312 -47.082031 305 64.53125 "/>
<path style="fill:none;stroke-width:1;stroke-linecap:round;stroke-linejoin:miter;stroke:rgb(0%,0%,0%);stroke-opacity:1;stroke-miterlimit:10;" d="M 175.5 52.5 C 175.5 52.5 275.5 52.5 275.5 52.5 C 275.5 52.5 275.5 102.5 275.5 102.5 C 275.5 102.5 175.5 102.5 175.5 102.5 C 175.5 102.5 175.5 52.5 175.5 52.5 Z "/>
</g>
</svg>
